<?xml version="1.0" standalone="no"?>
<!DOCTYPE svg PUBLIC "-//W3C//DTD SVG 1.1//EN" "http://www.w3.org/Graphics/SVG/1.1/DTD/svg11.dtd" >
<svg xmlns="http://www.w3.org/2000/svg">
<metadata>
Created by FontForge 20120731 at Thu Apr  6 21:41:57 2017
 By admin
</metadata>
<defs>
<font id="iconfont" horiz-adv-x="1024" >
  <font-face 
    font-family="iconfont"
    font-weight="500"
    font-stretch="normal"
    units-per-em="1024"
    panose-1="2 0 6 3 0 0 0 0 0 0"
    ascent="896"
    descent="-128"
    x-height="792"
    bbox="0 -147 1029 896"
    underline-thickness="0"
    underline-position="0"
    unicode-range="U+0078-E795"
  />
<missing-glyph 
 />
    <glyph glyph-name=".notdef" 
 />
    <glyph glyph-name=".notdef" 
 />
    <glyph glyph-name=".null" horiz-adv-x="0" 
 />
    <glyph glyph-name="nonmarkingreturn" horiz-adv-x="341" 
 />
    <glyph glyph-name="x" unicode="x" horiz-adv-x="1001" 
d="M281 543q-27 -1 -53 -1h-83q-18 0 -36.5 -6t-32.5 -18.5t-23 -32t-9 -45.5v-76h912v41q0 16 -0.5 30t-0.5 18q0 13 -5 29t-17 29.5t-31.5 22.5t-49.5 9h-133v-97h-438v97zM955 310v-52q0 -23 0.5 -52t0.5 -58t-10.5 -47.5t-26 -30t-33 -16t-31.5 -4.5q-14 -1 -29.5 -0.5
t-29.5 0.5h-32l-45 128h-439l-44 -128h-29h-34q-20 0 -45 1q-25 0 -41 9.5t-25.5 23t-13.5 29.5t-4 30v167h911zM163 247q-12 0 -21 -8.5t-9 -21.5t9 -21.5t21 -8.5q13 0 22 8.5t9 21.5t-9 21.5t-22 8.5zM316 123q-8 -26 -14 -48q-5 -19 -10.5 -37t-7.5 -25t-3 -15t1 -14.5
t9.5 -10.5t21.5 -4h37h67h81h80h64h36q23 0 34 12t2 38q-5 13 -9.5 30.5t-9.5 34.5q-5 19 -11 39h-368zM336 498v228q0 11 2.5 23t10 21.5t20.5 15.5t34 6h188q31 0 51.5 -14.5t20.5 -52.5v-227h-327z" />
    <glyph glyph-name="shanchu" unicode="&#xe600;" 
d="M344.5 105q11.5 0 19.5 8t8 20v306q0 12 -8 20t-19.5 8t-19.5 -8t-8 -20v-306q0 -12 8 -20t19.5 -8zM511.5 105q11.5 0 20 8t8.5 20v306q0 12 -8.5 20t-20 8t-19.5 -8t-8 -20v-306q0 -12 8 -20t19.5 -8zM679.5 105q11.5 0 19.5 8t8 20v306q0 12 -8 20t-19.5 8t-20 -8
t-8.5 -20v-306q0 -12 8.5 -20t20 -8zM819 746h-116q-9 37 -39 60.5t-68 23.5h-168q-38 0 -68 -23.5t-39 -60.5h-116q-46 0 -79 -32.5t-33 -78.5v-28h28v-28h56v-530q0 -46 32.5 -79t79.5 -33h446q46 0 79 33t33 79v530h55v28h28v28q0 46 -32.5 78.5t-78.5 32.5zM428 774h168
q31 0 48 -28h-264q16 28 48 28zM791 49q0 -23 -16.5 -39.5t-39.5 -16.5h-446q-24 0 -42 16.5t-18 39.5l4 530h558v-530zM149 635q0 23 16.5 39.5t39.5 16.5h614q23 0 39.5 -16.5t16.5 -39.5h-726z" />
    <glyph glyph-name="fuzhi" unicode="&#xe61a;" 
d="M884.5 547q-10.5 12 -25.5 12h-534q-14 0 -24.5 -12t-10.5 -30v-622q0 -17 10.5 -29.5t24.5 -12.5h410q4 0 18 12.5t31.5 31t37.5 41.5t36 44t26.5 36.5t10.5 21.5v477q0 18 -10.5 30zM341 264q0 7 5 12.5t13 5.5h467q7 0 12.5 -5.5t5.5 -12.5v-15q0 -7 -5.5 -12.5
t-12.5 -5.5h-467q-8 0 -13 5.5t-5 12.5v15zM844 122q0 -7 -5 -12.5t-13 -5.5h-467q-7 0 -12.5 5.5t-5.5 12.5v14q0 8 5.5 13.5t12.5 5.5h467q8 0 13 -5.5t5 -13.5v-14zM844 376q0 -8 -5 -13t-13 -5h-467q-7 0 -12.5 5t-5.5 13v14q0 8 5.5 13.5t12.5 5.5h467q8 0 13 -5.5
t5 -13.5v-14zM227 618h540v83q0 7 -5 12t-12 5h-604q-7 0 -12 -5t-5 -12v-767q0 -7 5 -12.5t12 -5.5h81v702z" />
    <glyph glyph-name="luru" unicode="&#xe612;" 
d="M704 358q10 3 26 6t25 6q7 4 22 7.5t23 5.5q13 7 38 7l-12 -45q-3 -5 -5 -10.5t-3.5 -9t-4.5 -6.5q-2 -3 -5 -10.5t-5.5 -12t-6.5 -11t-9 -11.5q-6 -6 -15.5 -19t-16.5 -19l-32 -32l-128 -32l103 -13q-7 -3 -22 -14.5t-23 -17.5q-7 -3 -23 -12.5t-22 -12.5
q-10 -4 -29 -13.5t-29 -12.5q-38 -13 -64 -13q-44 0 -70 7q-26 0 -77 12q3 3 11 14t15 18q2 5 12 16.5t13 22.5q7 6 16.5 22t15.5 23l96 134q75 105 84 115q12 19 41 57.5t42 57.5l-103 -102q-25 -26 -102 -115q-15 -22 -52.5 -70.5t-49.5 -64.5q-4 -6 -13.5 -19t-12.5 -19
q-6 -6 -16 -22t-16 -23q-22 -22 -32 -51q-24 -16 -38 -45q-16 -19 -45 -57.5t-45 -57.5q0 6 3 20t3 25q13 38 26 57q26 52 38 84q7 9 15 25t11 19q2 5 5.5 11t5.5 9t2 6q3 3 4.5 6t1.5 5v2q-9 9 0 19q0 3 2 8t5.5 14t5.5 16q3 10 14.5 32.5t17.5 38.5q4 11 12 24.5
t14.5 23.5t18.5 27t19 27q38 54 90 115q14 17 31.5 35t39 37.5t31.5 30.5q38 38 115 89q50 34 122 64q6 2 21 6.5t22 6.5t19 5t19.5 4.5t16.5 2.5t17 1q0 -45 -6 -77q-13 -64 -20 -102q-3 -19 -12.5 -57.5t-12.5 -57.5q-5 -15 -15 -50t-17 -53zM704 358zM192 -110z
M160 -109.5q0 13.5 9.5 22.5t22.5 9t22.5 -9t9.5 -22.5t-9.5 -23t-22.5 -9.5t-22.5 9.5t-9.5 23zM339 -110zM307 -109.5q0 13.5 9.5 22.5t22.5 9t22.5 -9t9.5 -22.5t-9.5 -23t-22.5 -9.5t-22.5 9.5t-9.5 23zM480 -110zM448 -109.5q0 13.5 9.5 22.5t22.5 9t22.5 -9t9.5 -22.5
t-9.5 -23t-22.5 -9.5t-22.5 9.5t-9.5 23zM621 -110zM589 -109.5q0 13.5 9.5 22.5t22.5 9t22.5 -9t9.5 -22.5t-9.5 -23t-22.5 -9.5t-22.5 9.5t-9.5 23zM749 -110zM717 -109.5q0 13.5 9.5 22.5t22.5 9t22.5 -9t9.5 -22.5t-9.5 -23t-22.5 -9.5t-22.5 9.5t-9.5 23z" />
    <glyph glyph-name="msnui-monitor" unicode="&#xe748;" 
d="M901 831h-778q-24 0 -41 -17t-17 -41v-778q0 -24 17 -41t41 -17h778q24 0 41 17t17 41v778q0 24 -17 41t-41 17zM210 730h604q19 0 31.5 -12.5t12.5 -31.5v-270h-118l-51 56q-7 12 -21 14h-5q-12 0 -21 -8q-9 -9 -10 -21l-53 -176l-76 335q-3 11 -11.5 17.5t-19.5 6.5
q-22 1 -30 -20l-95 -315l-92 101q-9 10 -23 10v0h-66v270q0 19 12.5 31.5t31.5 12.5zM814 38h-604q-19 0 -31.5 12.5t-12.5 31.5v272h53l118 -130q10 -10 24 -10q21 0 29 20l78 257l77 -337q2 -11 10.5 -17.5t19.5 -6.5t20 7.5t11 19.5l71 237l26 -29q4 -4 9 -7q7 -4 15 -4
h131v-272q0 -19 -12.5 -31.5t-31.5 -12.5z" />
    <glyph glyph-name="msnui-report" unicode="&#xe74d;" 
d="M934 363v-3q0 -87 -33.5 -164t-90 -134t-133.5 -90t-164 -33t-164 33t-134 90t-90 134t-33 164q0 74 25 142t68.5 121.5t103 92t129.5 53.5v-316q0 -36 7.5 -61.5t25 -41t46 -22t70.5 -6.5zM522 392q-11 0 -25 7t-14 31v373q0 18 9 25.5t32 7.5q11 0 42.5 -1.5
t75.5 -11.5t96 -33.5t104 -67.5q37 -31 56.5 -67.5t29 -68.5t11 -55t1.5 -28q0 -15 -7.5 -26.5t-26.5 -16.5q-8 -2 -38 -8t-71 -13q-41 -8 -87.5 -16t-87.5 -15t-68 -11q-29 -5 -32 -5v0v0zM522 392z" />
    <glyph glyph-name="extract" unicode="&#xe603;" 
d="M102 288v-410h820v820h-820v-410zM599 572q69 -76 69 -85q0 -37 -77 38l-58 58v-172q0 -155 -7 -165q-2 -4 -7 -3q-10 2 -13 29.5t-7 141.5l-4 169l-51 -59q-52 -57 -66 -52q-14 6 -14 13q0 9 73 85.5t82 76.5t80 -75zM273 105l3 -155l239 -2q240 -3 251 7q7 6 9.5 38.5
t2.5 117.5q0 106 2.5 126.5t14.5 20.5t14.5 -22t2.5 -134t-2.5 -136t-16.5 -37q-13 -12 -51 -14.5t-219 -2.5q-180 0 -218.5 2.5t-50.5 14.5t-14 38t-2 135q0 112 2 134t14 22t15 -21.5t4 -131.5zM558 178q90 -13 143 -5q73 11 69 -7q-1 -5 -11 -12q-19 -15 -82 -17.5
t-130 7.5q-143 21 -216 4q-45 -10 -51 5q-2 5 6 13q19 20 97.5 23t174.5 -11zM532 68q88 -14 159 -9q88 8 78 -14q-1 -3 -5 -7q-13 -13 -90 -14t-152 11q-64 9 -92.5 10t-70.5 -6q-65 -10 -73 -1q-18 17 28 29q9 2 21 4q46 9 85 8.5t112 -11.5z" />
    <glyph glyph-name="guanyu" unicode="&#xe698;" 
d="M512 747q-91 0 -173.5 -35.5t-142.5 -95.5t-95.5 -142.5t-35.5 -173.5t35.5 -173.5t95.5 -142.5t142.5 -95.5t173.5 -35.5t173.5 35.5t142.5 95.5t95.5 142.5t35.5 173.5t-35.5 173.5t-95.5 142.5t-142.5 95.5t-173.5 35.5zM488 26q-49 4 -73.5 34.5t-20.5 74.5
q3 24 24 61.5t37 71.5t10 55q-4 14 -59.5 15t-58.5 9q-2 6 6 16.5t23 21.5t36.5 20t46.5 12.5t53 0.5q15 -3 40.5 -28t30.5 -43q9 -38 -6 -82t-41 -83q-5 -6 -11.5 -15.5t-8.5 -13t-4 -10t-2 -13.5t2 -18q16 -15 33 -20.5t61 -3.5q-15 -34 -54 -49t-64 -13zM535.5 441
q-29.5 0 -50 20.5t-20.5 50t20.5 50t50 20.5t50 -20.5t20.5 -50t-20.5 -50t-50 -20.5z" />
    <glyph glyph-name="x-xlsx" unicode="&#xe690;" 
d="M38 78l550 -99v866l-550 -99v-668zM175 589h79l39 -74l40 74h78l-78 -148l98 -186h-79l-59 111l-59 -111h-78l98 186zM687 432h-99v-40h99v40zM687 196h-99v-40h99v40zM687 314h-99v-40h99v40zM687 550h-99v-40h99v40zM687 668h-99v-40h99v40zM746 274h137v40h-137v-40z
M746 392h137v40h-137v-40zM746 156h137v40h-137v-40zM883 668h-137v-40h137v40zM746 510h137v40h-137v-40zM588 786v-40h354v-668h-354v-40h395v748h-395z" />
    <glyph glyph-name="dnsjiance" unicode="&#xe692;" 
d="M730 292q-11 0 -21 -4l-96 95l96 96q10 -4 21 -4q21 0 35.5 14.5t14.5 35.5t-14.5 36t-35.5 15t-36 -15t-15 -36q0 -11 5 -21l-95 -96l-36 35q12 27 -7 49v0l-1.5 1.5l-0.5 0.5v0.5v0.5h-1v0q-13 14 -32.5 14t-33.5 -14q-22 -23 -10 -52l-35 -35l-97 97q5 10 5 20
q0 21 -15 36t-36 15t-35.5 -15t-14.5 -36t14.5 -35.5t35.5 -14.5q12 0 22 5l96 -97l-96 -96q-10 5 -22 5q-21 0 -35.5 -15t-14.5 -36t14.5 -35.5t35.5 -14.5t36 14.5t15 35.5q0 11 -5 21l97 97l35 -35q-12 -30 10 -52q14 -14 33.5 -14t32.5 14v0h1v0v1l0.5 0.5l1.5 1.5v0
q19 22 7 48l36 36l95 -96q-5 -10 -5 -22q0 -21 15 -35.5t36 -14.5t35.5 14.5t14.5 35.5t-14.5 36t-35.5 15zM529 348q-19 8 -37 0l-35 35l35 36q18 -8 37 0l35 -36zM790 830h-557q-69 0 -118.5 -49.5t-49.5 -118.5v-557q0 -69 49.5 -118.5t118.5 -49.5h557q69 0 118.5 49.5
t49.5 118.5v557q0 69 -49.5 118.5t-118.5 49.5zM166 105v537l616 87h8q27 0 47 -19.5t20 -47.5v-537l-616 -87h-8q-28 0 -47.5 20t-19.5 47z" />
    <glyph glyph-name="suodinglie" unicode="&#xe795;" horiz-adv-x="1025" 
d="M961 768h-320q-27 0 -45.5 -18.5t-18.5 -45.5v-640q0 -27 18.5 -45.5t45.5 -18.5h320q26 0 45 18.5t19 45.5v640q0 27 -19 45.5t-45 18.5zM769 64h-128v192h128v-192zM769 320h-128v128h128v-128zM769 512h-128v192h128v-192zM961 64h-128v192h128v-192zM961 320h-128
v128h128v-128zM961 512h-128v192h128v-192zM448.5 768q-26.5 0 -45 -18.5t-18.5 -45.5v-640q0 -27 18.5 -45.5t45 -18.5t45.5 18.5t19 45.5v640q0 27 -19 45.5t-45.5 18.5zM257 640v32q0 40 -28.5 68t-68 28t-67.5 -28t-28 -68v-32q-27 0 -45.5 -18.5t-18.5 -45.5v-192
q0 -27 18.5 -45.5t45.5 -18.5h192q26 0 45 18.5t19 45.5v192q0 27 -19 45.5t-45 18.5zM193 448h-64v64h64v-64zM193 640h-64v32q0 13 9 22.5t22.5 9.5t23 -9.5t9.5 -22.5v-32z" />
    <glyph glyph-name="jieshou" unicode="&#xe60c;" 
d="M626 82q-12 25 -30 43q-13 12 -19 12h-6q-5 0 -13.5 -8t-22 -22.5t-25.5 -24.5h-153q-13 6 -25 31h74q2 0 6.5 0.5t11 5t6.5 12.5v49q0 3 -0.5 7t-6.5 11t-17 7h-92v0h-25h-49h-43h-30v-209q165 -49 226 -49h15.5t38 5t55.5 13.5t62 29.5t62 50l13 13q0 -10 -6 5
q-2 6 -7 19v0zM626 82zM56 199h74v-227h-74v227v0zM56 199zM950 658v154q0 19 -9 19h-765q-9 0 -9 -19v-474v-2v-88h36h62h24h6h129q55 0 55 -31v-68q4 -5 10 -5t21 11.5t21 16.5t10 8v0q22 14 45.5 4t41 -24.5t17.5 -16.5q12 -12 36 -61q6 -11 9 -23t3 -19l1 -7l-6 -6
q-56 -55 -117 -86h380v717h-1zM751 439q0 -10 -10 -10h-128v-128q0 -9 -9 -9h-84q-10 0 -10 9v128h-128q-9 0 -9 10v84q0 9 9 9h128v128q0 10 10 10h84q9 0 9 -10v-128h128q10 0 10 -9v-84z" />
    <glyph glyph-name="chaxun" unicode="&#xe617;" 
d="M947 71l-163 163q-15 15 -36.5 18t-39.5 -7l-31 31q75 93 75 214q0 94 -46 173.5t-126 126t-174 46.5t-173.5 -46.5t-126 -126t-46.5 -173.5t46.5 -174t126 -126t173.5 -46q121 0 214 75l31 -31q-10 -18 -7 -39.5t18 -36.5l163 -163q19 -19 46 -19t45 19l31 31
q19 18 19 45t-19 46zM124 490q0 117 82.5 199.5t199.5 82.5t199.5 -82.5t82.5 -199.5t-82.5 -199.5t-199.5 -82.5t-199.5 82.5t-82.5 199.5zM477 319q-103 0 -176.5 73t-73.5 176v4t0.5 4t0.5 3q-29 -46 -29 -101q0 -80 56.5 -136.5t136.5 -56.5q61 0 111 35q-13 -1 -26 -1z
" />
    <glyph glyph-name="paixu" unicode="&#xe675;" 
d="M278 582l135 -35l-202 311l-201 -311l134 35v-396l-134 35l204 -311l202 311l-134 -35v396h-4zM541 678v-118h473v118h-473zM541 323h473v119h-473v-119zM541 86h473v119h-473v-119z" />
    <glyph glyph-name="shenhe" unicode="&#xe647;" horiz-adv-x="1025" 
d="M705 728h-545q-10 0 -17 -6.5t-7 -15t7 -15t17 -6.5h545q10 0 17 6.5t7 15t-7 15t-17 6.5zM729 553.5q0 8.5 -7 15t-17 6.5h-545q-10 0 -17 -6.5t-7 -15t7 -15t17 -6.5h545q10 0 17 6.5t7 15zM160 422q-10 0 -17 -6t-7 -15t7 -15.5t17 -6.5h350q10 0 17 6.5t7 15.5t-7 15
t-17 6h-350zM434 269h-274q-10 0 -17 -6t-7 -15t7 -15t17 -6h274q10 0 17 6t7 15t-7 15t-17 6zM968 52h-61l-119 149q37 11 60.5 40t23.5 66q0 46 -37 79t-89 33t-89 -33t-37 -79q0 -37 23.5 -66t60.5 -40l-119 -149h-61q-23 0 -39.5 -15t-16.5 -35v-80q0 -21 16.5 -35.5
t39.5 -14.5h444q23 0 39.5 14.5t16.5 35.5v80q0 20 -16.5 35t-39.5 15zM668 307q0 29 23 49.5t55.5 20.5t55.5 -20.5t23 -49.5t-23 -49.5t-55 -20.5h-2q-32 0 -54.5 20.5t-22.5 49.5zM739 170l14 1l95 -119h-204zM976 -78q0 -7 -8 -7h-444q-8 0 -8 7v80q0 7 8 7h73h298v0h73
q8 0 8 -7v-80v0v0zM48 11v835q0 7 8 7h760q8 0 8 -7v-401q27 -12 48 -32v433q0 21 -16.5 35.5t-39.5 14.5h-760q-23 0 -39.5 -14.5t-16.5 -35.5v-835q0 -20 16.5 -35t39.5 -15h364v41l0.5 1l0.5 1h-365q-8 0 -8 7v0z" />
    <glyph glyph-name="qingchu" unicode="&#xe636;" 
d="M943 508q-5 8 -13 12l-76 38l-71 36l96 191q5 10 -2 22t-21.5 19.5t-28 5.5t-18.5 -11l-96 -192l-64 32l-99 50h-1q-1 1 -2 1h-1q0 1 -0.5 1h-1h-1h-0.5l-0.5 0.5t-1 0.5h-1.5h-2h-0.5h-0.5h-1h-1h-2h-1h-2l-0.5 -0.5l-0.5 -0.5h-2h-1q-1 -1 -2 -1t-1 -1h-1q-1 -1 -2 -1
l-1 -1h-0.5t-1 -0.5t-1 -0.5h-0.5q-1 -1 -1 -1.5t-0.5 -0.5t-0.5 -1q-1 0 -1 -1q-1 0 -1.5 -1l-0.5 -1q-1 0 -1 -1q-1 -1 -1 -2l-0.5 -0.5l-0.5 -0.5l-0.5 -0.5l-0.5 -0.5q-35 -69 -88 -129l-2 -2q-34 -39 -75 -73q-106 -90 -246 -143q-22 -8 -21 -32q-1 -20 16 -30
l556 -340q5 -3 12 -4q9 -6 19 -6q13 0 22 9q118 116 183 256q65 142 66 286q0 10 -6 19zM824 230q-55 -120 -153 -221l-123 75l77 76q10 9 10 22.5t-9.5 23t-22.5 9.5t-23 -9l-89 -87l-144 88l87 61q11 8 13.5 21t-5.5 24t-21 13.5t-24 -5.5l-110 -77l-113 69
q117 52 210 131q35 29 64 61l396 -227q-9 -24 -20 -48zM864 341l-372 213q32 41 57 85l335 -168q-2 -65 -20 -130z" />
    <glyph glyph-name="tubiao08" unicode="&#xe64e;" 
d="M120 737h78v-683h-78v683zM818 737h77v-683h-77v683zM229 737h50v-523h-50v523zM305 737h27v-523h-27v523zM368 737h133v-523h-133v523zM530 737h66v-523h-66v523zM628 737h86v-523h-86v523zM732 737h43v-523h-43v523zM304.5 103q12.5 12 17.5 18q8 9 11 17.5t3 18.5
q0 17 -11.5 28t-32.5 11q-19 0 -32 -9.5t-15 -32.5l27 -2q1 12 6 17t13.5 5t13 -5t4.5 -14q0 -8 -5 -17q-4 -6 -23 -23q-22 -21 -30 -33.5t-9 -26.5h94v25h-53q2 4 5.5 7.5t16 15.5zM434 196h-23l-61 -89v-24h58v-28h26v28h17v24h-17v89zM408 107h-33l33 48v-48zM516 149
q-9 0 -18 -5l4 24h51v26h-72l-13 -74l21 -3q10 10 21 10q10 0 15.5 -6t5.5 -19q0 -14 -5.5 -21t-14.5 -7q-7 0 -13 5.5t-7 14.5l-27 -3q3 -18 15 -28.5t32 -10.5q24 0 38 19q10 14 10 31q0 21 -12.5 34t-30.5 13zM625 149q-9 0 -18 -5l4 24h51v26h-71l-14 -74l22 -3
q9 10 21 10q9 0 15 -6t6 -19q0 -14 -6 -21t-15 -7q-7 0 -12.5 5.5t-6.5 14.5l-27 -3q2 -18 14.5 -28.5t31.5 -10.5q24 0 38 19q10 14 10 31q0 21 -12.5 34t-30.5 13zM742 103q13 12 17 18q8 9 11.5 17.5t3.5 18.5q0 17 -12 28t-33 11q-19 0 -31.5 -9.5t-15.5 -32.5l27 -2
q1 12 6 17t13.5 5t13.5 -5t5 -14q0 -8 -6 -17q-4 -6 -22 -23q-23 -21 -30.5 -33.5t-9.5 -26.5h95v25h-54q2 4 5.5 7.5t16.5 15.5z" />
    <glyph glyph-name="fenxi2" unicode="&#xe63e;" horiz-adv-x="1030" 
d="M96 171q38 0 65.5 28t27.5 69q0 10 -3 24l212 220q13 -3 23.5 -3t23.5 3l120 -123q-4 -17 -4 -25q0 -40 28 -69t66.5 -29t66 29t27.5 69q0 8 -3 25l165 172q14 -3 24 -3q39 0 66.5 29t27.5 68.5t-27.5 68.5t-66.5 29q-38 0 -66 -28.5t-28 -69.5q0 -10 4 -24l-166 -172
q-13 4 -23.5 4t-24.5 -4l-119 123q3 17 3 26q0 39 -27.5 68t-65.5 29q-39 0 -66.5 -28.5t-27.5 -68.5q0 -9 3 -26l-213 -222q-14 4 -24 4q-39 0 -66.5 -28.5t-27.5 -69.5q1 -38 29 -66.5t67 -28.5zM2 17h1024v85h-1024v-85v0z" />
    <glyph glyph-name="outstock" unicode="&#xe649;" 
d="M1012 352l-164 435h-177v-33h135l110 -398h-237l-170 -156l-179 156h-235l110 398h138v33h-174l-162 -441h1q-1 -3 -1 -6v-446q0 -7 4.5 -11.5t11.5 -4.5h978q7 0 11.5 4.5t4.5 11.5v446q0 7 -5 12zM588 693h90l-171 203l-167 -203h90v-220h158v220zM430 422h158v29h-158
v-29z" />
    <glyph glyph-name="zhuanchurenyuanfenxi" unicode="&#xe6c3;" 
d="M764.5 415q-104.5 0 -178 -74t-73.5 -178t73.5 -178t178 -74t178 74t73.5 178t-73.5 178t-178 74zM689 40q0 -4 -3 -7t-7 -3h-51q-4 0 -7 3t-3 7v108q0 4 3 7t7 3h51q4 0 7 -3t3 -7v-108zM800 40q0 -4 -3 -7t-7 -3h-51q-4 0 -7 3t-3 7v263q0 4 3 7t7 3h51q10 0 10 -10
v-263zM912 40q0 -4 -3 -7t-8 -3h-51q-4 0 -7 3t-3 7v184q0 4 3 7t7 3h51q5 0 8 -3t3 -7v-184zM411 452h73v230h94l-130 175l-131 -175h94v-230zM887 705q0 63 -44.5 107.5t-106.5 44.5h-95v-74h95q32 0 55 -23t23 -55v-253q39 -6 73 -20v273zM160 50q-33 0 -56 23t-23 56
v576q0 32 23 55t56 23h94v74h-94q-63 0 -107.5 -44.5t-44.5 -107.5v-576q0 -63 44.5 -107.5t107.5 -44.5h363q-23 34 -37 73h-326z" />
    <glyph glyph-name="ruku" unicode="&#xe631;" 
d="M1016 350l-165 437h-177v-34h135l111 -399h-239l-169 -157l-180 157h-237l111 399h139v34h-175l-162 -443h1q-1 -3 -1 -6v-448q0 -7 4.5 -11.5t10.5 -4.5h982q7 0 11.5 4.5t4.5 11.5v448q0 7 -5 12zM512 424l174 202h-92v219h-160v-219h-92zM594 896h-160v-28h160v28z
" />
    <glyph glyph-name="guanliyuan" unicode="&#xe632;" 
d="M876 127q2 -15 11 -23t18 -12t11 -10q0 -12 -5 -29.5t-15 -20.5q-5 0 -15.5 1.5t-19 1.5t-15.5 -3q-20 -11 -25 -20q-5 -13 0 -31.5t0 -22.5q-42 -28 -55 -15q-4 4 -10.5 14.5t-13.5 15t-20.5 4.5t-23.5 -6t-14 -13.5t-10 -13.5t-12 -6q-17 0 -36 9.5t-19 19.5q0 3 3 11
t3 11.5v10t-3 11.5t-8 11q-15 11 -38.5 8.5t-26.5 1.5q-11 7 -15.5 23t0.5 26q2 6 12 11.5t19 16t9 27.5t-19 32t-21 23q-4 11 2.5 26t17.5 19q10 4 32.5 1.5t32.5 8.5q5 5 7.5 14.5t2.5 16.5t-0.5 17.5t-0.5 11.5q7 20 40 20q13 0 19.5 -9t15 -19t25.5 -12q15 0 23.5 3
t11.5 6.5t9 13.5t11 17q18 0 32 -6t18 -14q2 -5 2 -31.5t18 -38.5q12 -9 36 -3.5t29 3.5q11 -6 20 -40q-3 -9 -12.5 -16.5t-18.5 -12t-15 -15t-4 -25.5zM696 227q-34 -9 -52.5 -32.5t-17.5 -51t12.5 -53t38 -40t59.5 -8.5q24 5 41.5 19.5t25.5 32.5t10 39t-6 39.5t-21.5 33
t-37 20.5t-52.5 1zM492 401q-90 0 -152 62.5t-62 152.5t62 152t152 62t152.5 -62t62.5 -152q0 -87 -63 -151t-152 -64zM667 352q-4 0 -9 -0.5t-18.5 -3.5t-23.5 -8t-18 -16.5t-6 -26.5q2 -20 -10 -28.5t-27.5 -8t-31.5 -6t-21 -22.5q-8 -20 -6 -34t6 -18.5t12.5 -15
t12.5 -22.5q4 -10 -5.5 -21.5t-20.5 -28t-8 -35.5q3 -20 13.5 -30t21.5 -11.5t22.5 -6.5t16.5 -17q8 -23 -19 -36t-86 -13q-189 0 -234 5q-5 0 -14 1t-31.5 6.5t-39.5 14t-31 26.5t-14 41v14t3.5 35.5t10.5 51.5t23 57t38 57q4 4 10.5 11.5t29 26.5t47 33.5t63.5 26t79 11.5
z" />
    <glyph glyph-name="tiaomazhifu" unicode="&#xe610;" 
d="M1008 146q-7 20 -17.5 51t-18 52.5t-16.5 51.5t-15.5 53t-12 52.5t-8 54.5t-2.5 54t3 56q5 42 32 80q11 17 16 34t5.5 38t0 33t-4 39t-4.5 35q0 9 -21 19.5t-40 12.5q-64 10 -191 23q-61 15 -100 9q-74 -19 -212.5 -53.5t-193.5 -48.5q-55 -12 -65.5 -28t1.5 -71
q20 -91 23 -131q2 -25 14.5 -39.5t36.5 -24.5q225 -82 441 -100q-4 -12 -12 -42.5t-13 -46.5q-2 -3 -5 -12.5t-4.5 -13.5t-3 -12t-0.5 -12.5t3 -10.5t8 -9.5t14 -6.5q46 -11 76.5 -24.5t45 -28t18.5 -30.5t-1 -30.5t-17 -30.5t-25 -28t-29.5 -24t-27 -18.5t-20.5 -12.5
l-7 -3v-10q1 -12 3 -22.5t8.5 -28t16.5 -30t29 -24t44 -14.5t63.5 4t85.5 26q14 7 25.5 17t19 18t16.5 24t12.5 23t11.5 27t11 25q3 6 3 10v89v10zM259 568q-14 7 -22 48q-3 10 -5.5 22t-5.5 29.5t-5 28.5q201 -36 317 -61q7 -2 14.5 -10.5t7.5 -14.5q13 -77 19 -122
q-170 15 -320 80zM16 -110h55v281h-55v-281zM96 -110h93v281h-93v-281zM205 -110h67v281h-67v-281zM298 -110h134v281h-134v-281zM458 -110h67v281h-67v-281zM538 -110h54v281h-54v-281z" />
    <glyph glyph-name="tuichuxitong" unicode="&#xe601;" 
d="M801 -38h-466v202h50v-152h423v744h-423v-152h-50v135v67h625v-84v-760h-159zM267 604v-440l-203 220zM639 283h-372v202h372v-202z" />
    <glyph glyph-name="yibiaojianku-" unicode="&#xe60d;" 
d="M715 -92q-111 0 -189.5 78.5t-78.5 189.5t78.5 189t189.5 78t189 -78t78 -189t-78 -189.5t-189 -78.5zM714.5 325q-61.5 0 -105 -44t-43.5 -105.5t43.5 -105t105 -43.5t105 43.5t43.5 105t-43.5 105.5t-105 44zM744 87h-59v59h-59v60h59v59h59v-59h60v-60h-60v-59z
M863 544v-78q-22 11 -27 13q27 30 27 65zM763 498q-33 5 -48 5q-102 0 -186 -58q-3 -1 -10.5 -1.5t-11.5 -0.5q-97 0 -179.5 24t-130 65t-47.5 90v59q0 49 47.5 90t130 65t179.5 24t179 -24t129.5 -65t47.5 -90v-59q0 -72 -100 -124zM466 386q-18 -21 -36 -54t-26 -59
q-111 17 -182.5 64t-71.5 106v101q0 -67 89 -109.5t227 -48.5zM392 214q-4 -33 -4 -38q0 -36 11 -80q-110 17 -179.5 63.5t-69.5 105.5v100q0 -57 66.5 -96.5t175.5 -54.5zM423 32q37 -76 103 -123q-2 0 -9 -0.5t-10 -0.5q-97 0 -179.5 24t-130 65t-47.5 90v100
q0 -61 76 -102.5t197 -52.5z" />
    <glyph glyph-name="xiangmujiance" unicode="&#xe68e;" horiz-adv-x="1026" 
d="M654 202q-14 -1 -24 -10.5t-10 -23.5t10 -24.5t25 -10t25 10.5t10 24t-11 24t-25 10zM557 133q-2 -1 -6 -4t-6.5 -5t-2.5 -4q0 -3 2 -6t5.5 -8t5.5 -8q3 3 7 7.5t6 7t2 4.5q-1 3 -3 5.5t-5.5 6zM478 207q-2 -1 -6.5 -4.5t-7.5 -6.5t-3 -6q-1 -3 1 -7t6.5 -11t7.5 -12
q4 5 9.5 11t7.5 9.5t2 5.5q-1 4 -3.5 7.5t-7 7.5t-6.5 6zM339 215q-14 0 -23 -9.5t-8 -23.5q0 -13 9 -21.5t22 -8.5q14 0 23 9t9 22.5t-9 22.5t-23 9zM804 152q-67 107 -165 256q-28 41 -26 85q1 16 1 128q0 1 -1 20h-200q0 -15 -0.5 -44.5t-0.5 -51.5t2 -42q4 -53 -36 -110
q-45 -65 -131 -200q-24 -37 -35.5 -65.5t0.5 -49.5t39 -21q226 -1 527 0q19 0 30 10t10 28q-1 35 -14 57zM579.5 418q13.5 0 23.5 -10t10 -23.5t-10 -23.5t-23.5 -10t-23.5 10t-10 23.5t10 23.5t23.5 10zM504 529q14 0 23.5 -10t9.5 -23.5t-9.5 -23t-23.5 -9.5t-23.5 9.5
t-9.5 23t9.5 23.5t23.5 10zM464.5 419q21.5 0 36 -15t14.5 -36t-14.5 -36t-36 -15t-36.5 15t-15 36t15 36t36.5 15zM738 69q-260 -1 -451 0q-34 0 -50 21.5t-2 51.5q10 21 23 44t31 52.5t26 43.5q22 -14 23 -15q58 -35 127 -21q28 5 140 20q51 7 89 10q16 2 22 -7
q53 -81 73 -118q17 -33 2 -57.5t-53 -24.5zM513.5 892q-104.5 0 -199.5 -40.5t-164 -108.5t-109.5 -162.5t-40.5 -198.5t40.5 -198.5t109.5 -162.5t164 -108.5t199.5 -40.5t199.5 40.5t163.5 108.5t109 162.5t40.5 198.5t-40.5 198.5t-109 162.5t-163.5 108.5t-199.5 40.5z
M775 17q-471 0 -505 -1q-41 0 -66 15t-36 52v44q60 130 176 285q35 47 31 98q-1 21 -1.5 43.5t0.5 52.5t1 44q-12 1 -34 2v46h337v-44l-25 -5q0 -11 0.5 -34.5t0.5 -41.5t-2 -34q-8 -74 47 -151q48 -65 143 -225q16 -27 16 -63q1 -39 -21.5 -61t-61.5 -22z" />
    <glyph glyph-name="yiliao_shiguan_qingxie" unicode="&#xe605;" 
d="M955 714l-252 67q-17 5 -32.5 -4t-19.5 -26q-2 -5 -2 -11q0 -10 7 -21.5t17 -16.5l-176 -655q-15 -56 14 -105.5t84.5 -64.5t105.5 13.5t65 84.5l175 655q15 0 27.5 8.5t16.5 23.5q4 17 -4.5 32t-25.5 20zM855 532l-101 27l-138 -514q-3 -11 -13.5 -17t-22 -3t-17.5 13.5
t-3 21.5l138 514l2 7l28 106l157 -42zM568 818l-253 67q-17 5 -32 -4t-20 -26q-4 -15 2.5 -28.5t20.5 -20.5l-176 -655q-15 -56 14 -106t84.5 -64.5t105 14t64.5 84.5l176 655h3q13 0 25 9.5t16 22.5q4 17 -4.5 32t-25.5 20zM374 286l-101 27l-44 -164q-2 -9 -10.5 -15
t-17.5 -6q-4 0 -7 1q-9 2 -15.5 10t-6.5 17q0 4 1 8l44 164l96 356l28 106l157 -42z" />
  </font>
</defs>
</svg>
